<svg width="471" height="628" viewBox="0 0 471 628" fill="none" xmlns="http://www.w3.org/2000/svg">
<path d="M314 313L471.5 313L471.5 470.5L314 470.5L314 313Z" fill="#3913B8"/>
<path d="M157.5 0L315 -2.75382e-05L315 157.5L157.5 157.5L157.5 0Z" fill="#76F7FF"/>
<path d="M196.875 39.375L275.625 39.375L275.625 118.125L196.875 118.125L196.875 39.375Z" fill="#007AFF"/>
<path d="M352.375 393.75C352.375 372.004 370.004 354.375 391.75 354.375C413.496 354.375 431.125 372.004 431.125 393.75C431.125 415.496 413.496 433.125 391.75 433.125C370.004 433.125 352.375 415.496 352.375 393.75Z" fill="#FF5A6D"/>
<path d="M157.5 314L157.5 156.5L5.39483e-06 156.5L-1.52588e-05 314L157.5 314Z" fill="#76F7FF"/>
<rect width="78.75" height="78.75" transform="matrix(1.31134e-07 -1 -1 -1.31134e-07 157.5 314)" fill="#3913B8"/>
<path d="M78.75 156.5L78.75 235.25L157.5 235.25L157.5 156.5L78.75 156.5Z" fill="#007AFF"/>
<rect width="78.75" height="78.75" transform="matrix(-4.37114e-08 -1 -1 4.37114e-08 78.75 235.5)" fill="#FF5A6D"/>
<path d="M0 0L157.5 -2.75382e-05L157.5 157.5L2.75382e-05 157.5L0 0Z" fill="#FF5A6D"/>
<path d="M0 78.75L78.75 78.75L78.75 6.88454e-06L60 5.24537e-06C26.8629 2.34843e-06 4.53611e-06 26.8629 1.63918e-06 60L0 78.75Z" fill="#76F7FF"/>
<path d="M77.7656 78.75L157.5 78.75L157.5 6.9706e-06L137.766 5.24537e-06C104.629 2.34843e-06 77.7656 26.8629 77.7656 60L77.7656 78.75Z" fill="#3913B8"/>
<path d="M0 78.75L-8.19588e-07 97.5C-2.26806e-06 130.637 26.8629 157.5 60 157.5L78.75 157.5L78.75 78.75L0 78.75Z" fill="#76F7FF"/>
<path d="M77.7656 78.75L77.7656 97.5C77.7656 130.637 104.629 157.5 137.766 157.5L157.5 157.5L157.5 78.75L77.7656 78.75Z" fill="#3913B8"/>
<path d="M0 470.914L-3.42947e-05 314L156.914 314L156.915 470.914L0 470.914Z" fill="#FF5A6D"/>
<path d="M0 392.75L1.03268e-05 471.5L78.75 471.5L78.75 452.75C78.75 419.613 51.8871 392.75 18.75 392.75L0 392.75Z" fill="#76F7FF"/>
<path d="M157.5 392.75L157.5 314L78.75 314L78.75 332.75C78.75 365.887 105.613 392.75 138.75 392.75L157.5 392.75Z" fill="#3913B8"/>
<path d="M157.5 392.75L138.75 392.75C105.613 392.75 78.75 419.613 78.75 452.75L78.75 471.5L157.5 471.5L157.5 392.75Z" fill="#76F7FF"/>
<path d="M0 392.75L18.75 392.75C51.8871 392.75 78.75 365.887 78.75 332.75L78.75 314L-4.38136e-06 314L0 392.75Z" fill="#3913B8"/>
<path d="M314 627.5L314 470L471.5 470L471.5 627.5L314 627.5Z" fill="#76F7FF"/>
<path d="M314 548.75L314 627.5L392.75 627.5L392.75 608.75C392.75 575.613 365.887 548.75 332.75 548.75L314 548.75Z" fill="#FF5A6D"/>
<path d="M391.766 470L391.766 488.75C391.766 521.887 418.629 548.75 451.766 548.75L471.5 548.75L471.5 470L391.766 470Z" fill="#3913B8"/>
<path d="M314.5 157L157 157L157 314.5L314.5 314.5L314.5 157Z" fill="#3913B8"/>
<path d="M235.75 157H314.5V235.75H295.75C262.613 235.75 235.75 208.887 235.75 175.75V157Z" fill="#76F7FF"/>
<path d="M157 234.766L175.75 234.766C208.887 234.766 235.75 261.629 235.75 294.766L235.75 314.5L157 314.5L157 234.766Z" fill="#FF5A6D"/>
<path d="M314 0L471.5 -2.75382e-05L471.5 157.5L314 157.5L314 0Z" fill="#3913B8"/>
<path d="M315 0C315 86.9848 386.5 157.5 473.484 157.5L473.484 6.92757e-06L315 0Z" fill="#FF5A6D"/>
<path d="M473.484 78.75L473.484 1.52588e-05L394.734 1.87011e-05L394.734 18.75C394.734 51.8871 421.597 78.75 454.734 78.75L473.484 78.75Z" fill="#76F7FF"/>
<path d="M157 627.5L157 470L314.5 470L314.5 627.5L157 627.5Z" fill="#007AFF"/>
<path d="M314.5 548.75L235.75 548.75L235.75 627.5L254.5 627.5C287.637 627.5 314.5 600.637 314.5 567.5L314.5 548.75Z" fill="#3913B8"/>
<path d="M157 470H235.75V548.75H217C183.863 548.75 157 521.887 157 488.75V470Z" fill="#76F7FF"/>
<path d="M314.5 548.75L235.75 548.75L235.75 470L254.5 470C287.637 470 314.5 496.863 314.5 530L314.5 548.75Z" fill="#3913B8"/>
<path d="M235.75 627.5L235.75 548.75L157 548.75L157 567.5C157 600.637 183.863 627.5 217 627.5L235.75 627.5Z" fill="#FF5A6D"/>
<path d="M157.5 627.5L6.10352e-05 627.5L1.97279e-05 470L157.5 470L157.5 627.5Z" fill="#3913B8"/>
<path d="M118.125 588.125L39.375 588.125L39.375 509.375L118.125 509.375L118.125 588.125Z" fill="#76F7FF"/>
<path d="M314.586 157L471.5 157L471.5 313.914L314.586 313.915L314.586 157Z" fill="#76F7FF"/>
<path d="M392.75 157L314 157L314 235.75L332.75 235.75C365.887 235.75 392.75 208.887 392.75 175.75L392.75 157Z" fill="#FF5A6D"/>
<path d="M392.75 314.5L471.5 314.5L471.5 235.75L452.75 235.75C419.613 235.75 392.75 262.613 392.75 295.75L392.75 314.5Z" fill="#007AFF"/>
<path d="M392.75 314.5L392.75 295.75C392.75 262.613 365.887 235.75 332.75 235.75L314 235.75L314 314.5L392.75 314.5Z" fill="#FF5A6D"/>
<path d="M392.75 157L392.75 175.75C392.75 208.887 419.613 235.75 452.75 235.75L471.5 235.75L471.5 157L392.75 157Z" fill="#007AFF"/>
<path d="M156.873 471.363L156.873 313.863L314.373 313.863L314.373 471.363L156.873 471.363Z" fill="#007AFF"/>
<path d="M235.886 392.874L157.136 392.874L157.136 471.624L175.886 471.624C209.023 471.624 235.886 444.761 235.886 411.624L235.886 392.874Z" fill="#3913B8"/>
<path d="M314.886 313.874L235.151 313.874L235.151 392.624L254.886 392.624C288.023 392.624 314.886 365.761 314.886 332.624L314.886 313.874Z" fill="#76F7FF"/>
<path d="M157.136 313.874L157.136 332.624C157.136 365.761 183.999 392.624 217.136 392.624L235.886 392.624L235.886 313.874L157.136 313.874Z" fill="#76F7FF"/>
<path d="M235.628 472.116H254.378C287.515 472.116 314.378 445.253 314.378 412.116V392.382H235.628V472.116Z" fill="#FF5A6D"/>
</svg>
