<svg width="130" height="34" viewBox="0 0 130 34" fill="none" xmlns="http://www.w3.org/2000/svg">
<rect x="3.09082" y="3.09082" width="17" height="17" fill="#76F7FF"/>
<path d="M0 17H17V34H9C4.02944 34 0 29.9706 0 25V17Z" fill="#3913B8"/>
<path d="M17 0H25C29.9706 0 34 4.02944 34 9V17H17V0Z" fill="#007AFF"/>
<rect x="13.9092" y="13.9092" width="17" height="17" fill="#FF5A6D"/>
<path d="M65.592 12.164L61.302 24H58.002L55.34 16.652L52.59 24H49.29L45.022 12.164H48.256L51.05 20.172L53.954 12.164H56.858L59.674 20.172L62.556 12.164H65.592ZM78.4593 18.126C78.4593 18.17 78.4373 18.478 78.3933 19.05H69.4393C69.6006 19.7833 69.9819 20.3627 70.5833 20.788C71.1846 21.2133 71.9326 21.426 72.8273 21.426C73.4433 21.426 73.9859 21.338 74.4553 21.162C74.9393 20.9713 75.3866 20.678 75.7973 20.282L77.6233 22.262C76.5086 23.538 74.8806 24.176 72.7393 24.176C71.4046 24.176 70.2239 23.9193 69.1973 23.406C68.1706 22.878 67.3786 22.152 66.8213 21.228C66.2639 20.304 65.9853 19.2553 65.9853 18.082C65.9853 16.9233 66.2566 15.882 66.7993 14.958C67.3566 14.0193 68.1119 13.2933 69.0653 12.78C70.0333 12.252 71.1113 11.988 72.2993 11.988C73.4579 11.988 74.5066 12.2373 75.4453 12.736C76.3839 13.2347 77.1173 13.9533 77.6453 14.892C78.1879 15.816 78.4593 16.894 78.4593 18.126ZM72.3213 14.584C71.5439 14.584 70.8913 14.804 70.3633 15.244C69.8353 15.684 69.5126 16.2853 69.3953 17.048H75.2253C75.1079 16.3 74.7853 15.706 74.2573 15.266C73.7293 14.8113 73.0839 14.584 72.3213 14.584ZM86.4642 24.176C85.2028 24.176 84.0662 23.9193 83.0542 23.406C82.0568 22.878 81.2722 22.152 80.7002 21.228C80.1428 20.304 79.8642 19.2553 79.8642 18.082C79.8642 16.9087 80.1428 15.86 80.7002 14.936C81.2722 14.012 82.0568 13.2933 83.0542 12.78C84.0662 12.252 85.2028 11.988 86.4642 11.988C87.7108 11.988 88.7962 12.252 89.7202 12.78C90.6588 13.2933 91.3408 14.034 91.7662 15.002L89.1042 16.432C88.4882 15.3467 87.6008 14.804 86.4422 14.804C85.5475 14.804 84.8068 15.0973 84.2202 15.684C83.6335 16.2707 83.3402 17.07 83.3402 18.082C83.3402 19.094 83.6335 19.8933 84.2202 20.48C84.8068 21.0667 85.5475 21.36 86.4422 21.36C87.6155 21.36 88.5028 20.8173 89.1042 19.732L91.7662 21.184C91.3408 22.1227 90.6588 22.856 89.7202 23.384C88.7962 23.912 87.7108 24.176 86.4642 24.176ZM97.0202 13.726C97.4309 13.154 97.9809 12.7213 98.6702 12.428C99.3742 12.1347 100.181 11.988 101.09 11.988V15.156C100.709 15.1267 100.452 15.112 100.32 15.112C99.3375 15.112 98.5675 15.3907 98.0102 15.948C97.4529 16.4907 97.1742 17.312 97.1742 18.412V24H93.7422V12.164H97.0202V13.726ZM114.617 18.126C114.617 18.17 114.595 18.478 114.551 19.05H105.597C105.759 19.7833 106.14 20.3627 106.741 20.788C107.343 21.2133 108.091 21.426 108.985 21.426C109.601 21.426 110.144 21.338 110.613 21.162C111.097 20.9713 111.545 20.678 111.955 20.282L113.781 22.262C112.667 23.538 111.039 24.176 108.897 24.176C107.563 24.176 106.382 23.9193 105.355 23.406C104.329 22.878 103.537 22.152 102.979 21.228C102.422 20.304 102.143 19.2553 102.143 18.082C102.143 16.9233 102.415 15.882 102.957 14.958C103.515 14.0193 104.27 13.2933 105.223 12.78C106.191 12.252 107.269 11.988 108.457 11.988C109.616 11.988 110.665 12.2373 111.603 12.736C112.542 13.2347 113.275 13.9533 113.803 14.892C114.346 15.816 114.617 16.894 114.617 18.126ZM108.479 14.584C107.702 14.584 107.049 14.804 106.521 15.244C105.993 15.684 105.671 16.2853 105.553 17.048H111.383C111.266 16.3 110.943 15.706 110.415 15.266C109.887 14.8113 109.242 14.584 108.479 14.584ZM122.534 24.176C121.288 24.176 120.166 23.9193 119.168 23.406C118.186 22.878 117.416 22.152 116.858 21.228C116.301 20.304 116.022 19.2553 116.022 18.082C116.022 16.9087 116.301 15.86 116.858 14.936C117.416 14.012 118.186 13.2933 119.168 12.78C120.166 12.252 121.288 11.988 122.534 11.988C123.781 11.988 124.896 12.252 125.878 12.78C126.861 13.2933 127.631 14.012 128.188 14.936C128.746 15.86 129.024 16.9087 129.024 18.082C129.024 19.2553 128.746 20.304 128.188 21.228C127.631 22.152 126.861 22.878 125.878 23.406C124.896 23.9193 123.781 24.176 122.534 24.176ZM122.534 21.36C123.414 21.36 124.133 21.0667 124.69 20.48C125.262 19.8787 125.548 19.0793 125.548 18.082C125.548 17.0847 125.262 16.2927 124.69 15.706C124.133 15.1047 123.414 14.804 122.534 14.804C121.654 14.804 120.928 15.1047 120.356 15.706C119.784 16.2927 119.498 17.0847 119.498 18.082C119.498 19.0793 119.784 19.8787 120.356 20.48C120.928 21.0667 121.654 21.36 122.534 21.36Z" fill="#3913B8"/>
</svg>
