<svg width="23" height="22" viewBox="0 0 23 22" fill="none" xmlns="http://www.w3.org/2000/svg">
<path d="M20.4444 0C21.1222 0 21.7722 0.257539 22.2515 0.715961C22.7308 1.17438 23 1.79614 23 2.44444V19.5556C23 20.2039 22.7308 20.8256 22.2515 21.284C21.7722 21.7425 21.1222 22 20.4444 22H2.55556C1.87778 22 1.22776 21.7425 0.748505 21.284C0.269245 20.8256 0 20.2039 0 19.5556V2.44444C0 1.79614 0.269245 1.17438 0.748505 0.715961C1.22776 0.257539 1.87778 0 2.55556 0H20.4444ZM19.8056 18.9444V12.4667C19.8056 11.4099 19.3667 10.3965 18.5855 9.64924C17.8043 8.90201 16.7448 8.48222 15.64 8.48222C14.5539 8.48222 13.2889 9.11778 12.6756 10.0711V8.71444H9.11056V18.9444H12.6756V12.9189C12.6756 11.9778 13.4678 11.2078 14.4517 11.2078C14.9261 11.2078 15.3811 11.3881 15.7166 11.709C16.0521 12.0298 16.2406 12.4651 16.2406 12.9189V18.9444H19.8056ZM4.95778 6.79556C5.52711 6.79556 6.07312 6.57922 6.4757 6.19415C6.87828 5.80907 7.10444 5.2868 7.10444 4.74222C7.10444 3.60556 6.14611 2.67667 4.95778 2.67667C4.38506 2.67667 3.83579 2.89429 3.43082 3.28165C3.02585 3.66902 2.79833 4.1944 2.79833 4.74222C2.79833 5.87889 3.76944 6.79556 4.95778 6.79556ZM6.73389 18.9444V8.71444H3.19444V18.9444H6.73389Z" fill="#FF5A6D"/>
</svg>
