<svg width="169" height="168" viewBox="0 0 169 168" fill="none" xmlns="http://www.w3.org/2000/svg">
<path d="M0.00390625 0L0.00388786 84.1237L84.1276 84.1237L84.1277 1.83858e-05L0.00390625 0Z" fill="#007AFF"/>
<rect width="42.0619" height="42.0619" transform="matrix(-2.18557e-07 1 1 2.18557e-07 0.0078125 0)" fill="#3913B8"/>
<path d="M42.0664 84.124L42.0664 42.0622L0.00453356 42.0622L0.00452805 84.124L42.0664 84.124Z" fill="#FF5A6D"/>
<rect width="42.0619" height="42.0619" transform="matrix(1 0 0 -1 42.0664 83.9922)" fill="#76F7FF"/>
<path d="M83.9922 84.124L168.116 84.124L168.116 0.000281737L83.9922 0.000267029L83.9922 84.124Z" fill="#007AFF"/>
<path d="M126.055 84.125L83.9928 84.125L83.9928 42.0631C107.223 42.0631 126.055 60.8949 126.055 84.125Z" fill="#76F7FF"/>
<path d="M168.117 42.5898C144.887 42.5898 126.055 23.7581 126.055 0.527965L126.055 0.00220857L168.117 0.0022049L168.117 42.5898Z" fill="#FF5A6D"/>
<path d="M0.136719 167.561L0.1367 83.4368L84.2605 83.4368L84.2605 167.561L0.136719 167.561Z" fill="#3913B8"/>
<path d="M21.1699 146.529L21.1699 104.467L63.2318 104.467L63.2318 146.529L21.1699 146.529Z" fill="#FF5A6D"/>
<path d="M83.9902 167.161L83.9902 83.0374L168.114 83.0374L168.114 167.161L83.9902 167.161Z" fill="#007AFF"/>
<path d="M126.053 167.161L126.053 125.099L83.9909 125.099C83.9909 148.329 102.823 167.161 126.053 167.161Z" fill="#FF5A6D"/>
<path d="M126.053 125.626L126.053 83.0383L83.9909 83.0383L83.9909 83.5641C83.9909 106.794 102.823 125.626 126.053 125.626Z" fill="#76F7FF"/>
<path d="M126.053 167.161C149.283 167.161 168.115 148.329 168.115 125.099H126.053V167.161Z" fill="#FF5A6D"/>
<path d="M126.053 125.626C149.283 125.626 168.115 106.794 168.115 83.5641V83.0383H126.053V125.626Z" fill="#76F7FF"/>
</svg>
