<svg width="108" height="107" viewBox="0 0 108 107" fill="none" xmlns="http://www.w3.org/2000/svg">
<path d="M0 0.0166016L-1.17072e-05 53.5826L53.566 53.5826L53.566 0.0166133L0 0.0166016Z" fill="#007AFF"/>
<rect width="26.783" height="26.783" transform="matrix(-2.18557e-07 1 1 2.18557e-07 0.000976562 0.0166016)" fill="#3913B8"/>
<path d="M26.7832 53.583L26.7832 26.8L0.000194247 26.8L0.000190735 53.583L26.7832 53.583Z" fill="#FF5A6D"/>
<rect width="26.783" height="26.783" transform="matrix(1 0 0 -1 26.7832 53.498)" fill="#76F7FF"/>
<path d="M53.4805 53.583L107.046 53.583L107.046 0.017L53.4805 0.0169907L53.4805 53.583Z" fill="#007AFF"/>
<path d="M80.2637 53.583L53.4807 53.583L53.4807 26.8C68.2725 26.8 80.2637 38.7912 80.2637 53.583Z" fill="#76F7FF"/>
<path d="M107.047 27.1348C92.255 27.1348 80.2639 15.1436 80.2639 0.351756L80.2639 0.0169777L107.047 0.0169754L107.047 27.1348Z" fill="#FF5A6D"/>
<path d="M0.0849609 106.711L0.0849492 53.1449L53.651 53.1449L53.651 106.711L0.0849609 106.711Z" fill="#3913B8"/>
<path d="M13.4775 93.3193L13.4775 66.5363L40.2605 66.5363L40.2606 93.3193L13.4775 93.3193Z" fill="#FF5A6D"/>
<path d="M53.4785 106.456L53.4785 52.8901L107.045 52.89L107.045 106.456L53.4785 106.456Z" fill="#007AFF"/>
<path d="M80.2617 106.456L80.2617 79.6731L53.4787 79.6731C53.4787 94.4649 65.4699 106.456 80.2617 106.456Z" fill="#FF5A6D"/>
<path d="M80.2617 80.0078L80.2617 52.89L53.4787 52.89L53.4787 53.2248C53.4787 68.0166 65.4699 80.0078 80.2617 80.0078Z" fill="#76F7FF"/>
<path d="M80.2617 106.456C95.0536 106.456 107.045 94.4649 107.045 79.673H80.2617V106.456Z" fill="#FF5A6D"/>
<path d="M80.2617 80.0078C95.0536 80.0078 107.045 68.0167 107.045 53.2248V52.89H80.2617V80.0078Z" fill="#76F7FF"/>
</svg>
