<svg width="167" height="167" viewBox="0 0 167 167" fill="none" xmlns="http://www.w3.org/2000/svg">
<path d="M0.00292969 0.000976562L83.4297 0.000961976L83.4297 83.4278L0.00294427 83.4278L0.00292969 0.000976562Z" fill="#76F7FF"/>
<path d="M20.8594 20.8584L62.5728 20.8584L62.5728 62.5718L20.8594 62.5718L20.8594 20.8584Z" fill="#3913B8"/>
<path d="M83.6348 83.3662L0.00273132 83.3662L0.00272401 166.998L83.6348 166.998L83.6348 83.3662Z" fill="#3913B8"/>
<path d="M41 83.3662H82.816V125.182C59.7217 125.182 41 106.461 41 83.3662Z" fill="#007AFF"/>
<path d="M0.00488281 124.661C23.0992 124.661 41.8209 143.383 41.8209 166.477L41.8209 167L0.00489022 167L0.00488281 124.661Z" fill="#FF5A6D"/>
<path d="M166.348 83.6318L82.7156 83.6319L82.7156 -0.000222207L166.348 -0.000244141L166.348 83.6318Z" fill="#3913B8"/>
<path d="M166.348 83.6318C166.348 37.4431 128.382 -0.000227222 82.1929 -0.000225203L82.1929 83.6318L166.348 83.6318Z" fill="#FF5A6D"/>
<path d="M123.89 83.6318L82.0736 83.6318L82.0736 41.8158C105.168 41.8158 123.89 60.5375 123.89 83.6318Z" fill="#007AFF"/>
<path d="M166.043 166.997L82.7218 166.997L82.7218 83.6759L166.043 83.6759L166.043 166.997Z" fill="#76F7FF"/>
<path d="M124.539 166.997L166.355 166.997L166.355 125.181C143.261 125.181 124.539 143.903 124.539 166.997Z" fill="#FF5A6D"/>
<path d="M124.539 83.3662L82.723 83.3662L82.7231 125.182V125.182C105.817 125.182 124.539 106.461 124.539 83.3662V83.3662Z" fill="#3913B8"/>
<path d="M124.539 83.3662C124.539 106.461 143.261 125.182 166.355 125.182L166.355 83.3662L124.539 83.3662Z" fill="#FF5A6D"/>
<path d="M124.539 166.997C124.539 143.903 105.817 125.181 82.723 125.181L82.723 166.997L124.539 166.997Z" fill="#3913B8"/>
</svg>
