<svg width="107" height="107" viewBox="0 0 107 107" fill="none" xmlns="http://www.w3.org/2000/svg">
<path d="M0 0L53.4535 -9.34611e-06L53.4535 53.4535L9.34611e-06 53.4535L0 0Z" fill="#76F7FF"/>
<path d="M13.3633 13.3633L40.09 13.3633L40.09 40.09L13.3633 40.09L13.3633 13.3633Z" fill="#3913B8"/>
<path d="M53.585 53.415L-2.67029e-05 53.415L-3.13874e-05 107L53.585 107L53.585 53.415Z" fill="#3913B8"/>
<path d="M26.793 53.415H53.5855V80.2075C38.7884 80.2075 26.793 68.2121 26.793 53.415Z" fill="#007AFF"/>
<path d="M0.00195312 79.873C14.799 79.873 26.7945 91.8685 26.7945 106.666L26.7945 107L0.00195787 107L0.00195312 79.873Z" fill="#FF5A6D"/>
<path d="M106.58 53.585L52.9951 53.585L52.9951 -4.31668e-05L106.58 -5.72205e-05L106.58 53.585Z" fill="#3913B8"/>
<path d="M106.58 53.585C106.58 23.9908 82.2543 -4.47131e-05 52.6602 -4.34195e-05L52.6602 53.585L106.58 53.585Z" fill="#FF5A6D"/>
<path d="M79.377 53.585L52.5845 53.585L52.5845 26.7925C67.3815 26.7925 79.377 38.7879 79.377 53.585Z" fill="#007AFF"/>
<path d="M106.386 107L52.9999 107L52.9999 53.6142L106.386 53.6142L106.386 107Z" fill="#76F7FF"/>
<path d="M79.793 107L106.585 107L106.585 80.2075C91.7884 80.2075 79.793 92.2029 79.793 107Z" fill="#FF5A6D"/>
<path d="M79.793 53.415L53.0005 53.4151L53.0005 80.2076C67.7976 80.2075 79.793 68.2121 79.793 53.415Z" fill="#3913B8"/>
<path d="M79.793 53.415C79.793 68.2121 91.7884 80.2075 106.585 80.2075L106.585 53.415L79.793 53.415Z" fill="#FF5A6D"/>
<path d="M79.793 107C79.793 92.2029 67.7975 80.2075 53.0005 80.2075L53.0005 107L79.793 107Z" fill="#3913B8"/>
</svg>
