<svg width="167" height="168" viewBox="0 0 167 168" fill="none" xmlns="http://www.w3.org/2000/svg">
<path d="M82.1211 166.973L165.74 166.973L165.74 83.3535L82.1211 83.3535L82.1211 166.973Z" fill="#007AFF"/>
<path d="M123.929 166.973L82.1191 166.973L82.1191 125.163C105.21 125.163 123.929 143.882 123.929 166.973Z" fill="#3913B8"/>
<path d="M165.738 125.687C142.647 125.687 123.929 106.968 123.929 83.8769L123.929 83.3543L165.738 83.3543L165.738 125.687Z" fill="#FF5A6D"/>
<path d="M0.398438 83.2881L84.0176 83.2881L84.0176 166.907L0.398452 166.907L0.398438 83.2881Z" fill="#007AFF"/>
<path d="M42.0713 125.236L42.0713 83.4268L0.261717 83.4268C0.261714 106.518 18.9805 125.236 42.0713 125.236Z" fill="#FF5A6D"/>
<path d="M84.0117 167.179L84.0117 124.847L42.2021 124.847L42.2021 125.369C42.2021 148.46 60.9209 167.179 84.0117 167.179Z" fill="#3913B8"/>
<path d="M84.0137 83.4258C60.9229 83.4258 42.2041 102.145 42.2041 125.235L84.0137 125.235L84.0137 83.4258Z" fill="#76F7FF"/>
<path d="M0 125.101C-1.00933e-06 148.191 18.7188 166.91 41.8096 166.91L42.3322 166.91L42.3322 125.101L0 125.101Z" fill="#FF5A6D"/>
<path d="M166.003 0.000976562L82.3838 0.000959284L82.3838 83.6201L166.003 83.6201L166.003 0.000976562Z" fill="#76F7FF"/>
<rect width="41.8096" height="41.8096" transform="matrix(-1 -2.06632e-07 -2.06632e-07 1 166.003 0.000976562)" fill="#FF5A6D"/>
<path d="M82.3848 41.8105L124.194 41.8106L124.194 0.000966288L82.3848 0.000961304L82.3848 41.8105Z" fill="#007AFF"/>
<rect width="41.8096" height="41.8096" transform="matrix(-1 -3.17865e-08 -3.17865e-08 1 124.325 41.8105)" fill="#3913B8"/>
<path d="M0.637695 0.00292969L83.946 0.00291512L83.946 83.3112L0.63771 83.3112L0.637695 0.00292969Z" fill="#FF5A6D"/>
<path d="M42.1357 0.00292969L0.326176 0.00293334L0.326179 41.8125C23.417 41.8125 42.1357 23.0937 42.1357 0.00292969Z" fill="#76F7FF"/>
<path d="M42.1357 83.6211L83.9453 83.6211L83.9453 41.8115C60.8545 41.8115 42.1357 60.5303 42.1357 83.6211Z" fill="#007AFF"/>
<path d="M42.1357 83.6211C42.1357 60.5303 23.417 41.8115 0.326171 41.8115L0.326168 83.6211L42.1357 83.6211Z" fill="#76F7FF"/>
<path d="M42.1357 0.00292969C42.1357 23.0937 60.8545 41.8125 83.9453 41.8125L83.9453 0.00292919L42.1357 0.00292969Z" fill="#007AFF"/>
</svg>
