<svg width="107" height="107" viewBox="0 0 107 107" fill="none" xmlns="http://www.w3.org/2000/svg">
<path d="M52.5596 106.868L106.079 106.868L106.079 53.3489L52.5596 53.3489L52.5596 106.868Z" fill="#007AFF"/>
<path d="M79.3184 106.868L52.5588 106.868L52.5588 80.1085C67.3377 80.1085 79.3184 92.0892 79.3184 106.868Z" fill="#3913B8"/>
<path d="M106.078 80.4434C91.2992 80.4434 79.3185 68.4627 79.3185 53.6838L79.3185 53.3493L106.078 53.3493L106.078 80.4434Z" fill="#FF5A6D"/>
<path d="M0.254883 53.3066L53.7741 53.3066L53.7741 106.826L0.254892 106.826L0.254883 53.3066Z" fill="#007AFF"/>
<path d="M26.9277 80.1553L26.9277 53.3957L0.168125 53.3957C0.168123 68.1746 12.1488 80.1553 26.9277 80.1553Z" fill="#FF5A6D"/>
<path d="M53.7705 107L53.7705 79.9059L27.0109 79.9059L27.0109 80.2404C27.0109 95.0193 38.9916 107 53.7705 107Z" fill="#3913B8"/>
<path d="M53.7715 53.3955C38.9926 53.3955 27.0119 65.3762 27.0119 80.1551L53.7715 80.1551L53.7715 53.3955Z" fill="#76F7FF"/>
<path d="M0 80.0684C-6.46007e-07 94.8473 11.9807 106.828 26.7596 106.828L27.0941 106.828L27.0941 80.0684L0 80.0684Z" fill="#FF5A6D"/>
<path d="M106.247 0L52.7279 -1.10588e-05L52.7279 53.5192L106.247 53.5192L106.247 0Z" fill="#76F7FF"/>
<rect width="26.7596" height="26.7596" transform="matrix(-1 -2.06632e-07 -2.06632e-07 1 106.247 0)" fill="#FF5A6D"/>
<path d="M52.7275 26.7598L79.4871 26.7598L79.4871 0.000150056L52.7275 0.000146866L52.7275 26.7598Z" fill="#007AFF"/>
<rect width="26.7596" height="26.7596" transform="matrix(-1 -3.17865e-08 -3.17865e-08 1 79.5723 26.7598)" fill="#3913B8"/>
<path d="M0.407227 0L53.7275 -9.32281e-06L53.7275 53.3203L0.407236 53.3203L0.407227 0Z" fill="#FF5A6D"/>
<path d="M26.9678 0L0.208166 2.3394e-06L0.208168 26.7596C14.9871 26.7596 26.9678 14.7789 26.9678 0Z" fill="#76F7FF"/>
<path d="M26.9678 53.5195L53.7274 53.5195L53.7274 26.7599C38.9485 26.7599 26.9678 38.7406 26.9678 53.5195Z" fill="#007AFF"/>
<path d="M26.9678 53.5195C26.9678 38.7406 14.9871 26.7599 0.208164 26.7599L0.208162 53.5195L26.9678 53.5195Z" fill="#76F7FF"/>
<path d="M26.9678 0C26.9678 14.7789 38.9485 26.7596 53.7274 26.7596L53.7274 -3.19105e-07L26.9678 0Z" fill="#007AFF"/>
</svg>
