<svg width="168" height="168" viewBox="0 0 168 168" fill="none" xmlns="http://www.w3.org/2000/svg">
<path d="M82.9004 82.8975L82.9004 167L167.003 167L167.003 82.8975L82.9004 82.8975Z" fill="#007AFF"/>
<path d="M167.004 124.949L124.953 124.949L124.953 82.8979C148.177 82.8979 167.004 101.725 167.004 124.949Z" fill="#3913B8"/>
<path d="M82.9004 167.002L124.952 167.002L124.952 124.951C101.727 124.951 82.9004 143.778 82.9004 167.002Z" fill="#76F7FF"/>
<path d="M167.004 124.949L124.953 124.949L124.953 167.001C148.177 167 167.004 148.173 167.004 124.949Z" fill="#3913B8"/>
<path d="M124.953 82.8975L124.953 124.949L82.9019 124.949C82.9019 101.724 101.729 82.8975 124.953 82.8975Z" fill="#FF5A6D"/>
<path d="M0.00390625 83.2998L0.00388787 167.402L84.1064 167.402L84.1064 83.2998L0.00390625 83.2998Z" fill="#007AFF"/>
<path d="M42.1973 125.212L0.146004 125.212L0.146 83.1606C23.3703 83.1606 42.1973 101.988 42.1973 125.212Z" fill="#3913B8"/>
<path d="M84.3809 167.396L41.804 167.395L41.804 125.344L42.3296 125.344C65.5539 125.344 84.3809 144.171 84.3809 167.396Z" fill="#FF5A6D"/>
<path d="M0.146484 167.396C0.146487 144.171 18.9735 125.344 42.1978 125.344L42.1978 167.396L0.146484 167.396Z" fill="#76F7FF"/>
<path d="M42.0566 82.8965C65.2809 82.8965 84.1079 101.723 84.1079 124.948V125.473L42.0566 125.473L42.0566 82.8965Z" fill="#76F7FF"/>
<path d="M166.869 83.9717L166.869 0.0026474L82.9001 0.00263639L82.9001 83.9717L166.869 83.9717Z" fill="#3913B8"/>
<path d="M123.456 62.9805C134.786 62.9805 143.971 53.7955 143.971 42.4653L143.971 41.5111C143.971 30.1809 134.786 20.996 123.456 20.996C112.125 20.9959 102.94 30.1809 102.94 41.5111L102.94 42.4653C102.94 53.7955 112.125 62.9805 123.456 62.9805Z" fill="#76F7FF"/>
<path d="M0.00390625 84.1045L84.1064 84.1045L84.1064 0.00196315L0.00391628 0.00195312L0.00390625 84.1045Z" fill="#FF5A6D"/>
<path d="M42.0547 84.2832L0.0034256 84.2832L0.00342693 42.2319C23.2277 42.2319 42.0547 61.0589 42.0547 84.2832Z" fill="#76F7FF"/>
<path d="M84.1055 42.5781C60.8812 42.5781 42.0542 23.7511 42.0542 0.526865L42.0542 0.00122672L84.1055 0.0012207L84.1055 42.5781Z" fill="#3913B8"/>
</svg>
