<svg width="107" height="108" viewBox="0 0 107 108" fill="none" xmlns="http://www.w3.org/2000/svg">
<path d="M53 52.999L53 106.77L106.771 106.77L106.771 52.999L53 52.999Z" fill="#007AFF"/>
<path d="M106.771 79.8848L79.886 79.8848L79.886 52.9993C94.7344 52.9993 106.771 65.0363 106.771 79.8848Z" fill="#3913B8"/>
<path d="M53 106.771L79.8855 106.771L79.8855 79.885C65.037 79.885 53 91.9221 53 106.771Z" fill="#76F7FF"/>
<path d="M106.771 79.8848L79.886 79.8848L79.886 106.77C94.7344 106.77 106.771 94.7332 106.771 79.8848Z" fill="#3913B8"/>
<path d="M79.8857 52.999L79.8857 79.8845L53.0002 79.8845C53.0002 65.0361 65.0373 52.999 79.8857 52.999Z" fill="#FF5A6D"/>
<path d="M0 53.2568L-1.1752e-05 107.028L53.771 107.028L53.771 53.2568L0 53.2568Z" fill="#007AFF"/>
<path d="M26.9756 80.0527L0.0900898 80.0527L0.0900874 53.1672C14.9385 53.1672 26.9756 65.2043 26.9756 80.0527Z" fill="#3913B8"/>
<path d="M53.9463 107.023L26.7247 107.023L26.7247 80.1379L27.0608 80.1379C41.9093 80.1379 53.9463 92.175 53.9463 107.023Z" fill="#FF5A6D"/>
<path d="M0.0898438 107.023C0.0898457 92.175 12.1269 80.1379 26.9753 80.1379L26.9753 107.023L0.0898438 107.023Z" fill="#76F7FF"/>
<path d="M26.8867 52.999C41.7352 52.999 53.7722 65.0361 53.7722 79.8845V80.2206H26.8867L26.8867 52.999Z" fill="#76F7FF"/>
<path d="M106.686 53.6855L106.686 -9.15527e-05L52.9999 -9.85928e-05L52.9999 53.6855L106.686 53.6855Z" fill="#3913B8"/>
<path d="M78.9276 40.2646C86.1715 40.2646 92.0439 34.3922 92.0439 27.1483L92.0439 26.5382C92.044 19.2942 86.1715 13.4218 78.9276 13.4218C71.6836 13.4218 65.8112 19.2942 65.8112 26.5382L65.8112 27.1483C65.8112 34.3922 71.6836 40.2646 78.9276 40.2646Z" fill="#76F7FF"/>
<path d="M0 53.7705L53.771 53.7705L53.771 -0.000481871L6.41e-06 -0.000488281L0 53.7705Z" fill="#FF5A6D"/>
<path d="M26.8857 53.8848L0.000246048 53.8848L0.000246903 26.9993C14.8487 26.9993 26.8857 39.0363 26.8857 53.8848Z" fill="#76F7FF"/>
<path d="M53.7705 27.2207C38.9221 27.2207 26.885 15.1837 26.885 0.335209L26.885 -0.000854461L53.7705 -0.000858307L53.7705 27.2207Z" fill="#3913B8"/>
</svg>
