<svg width="12" height="13" viewBox="0 0 12 13" fill="none" xmlns="http://www.w3.org/2000/svg">
<path d="M10.4974 0.738281C10.8454 0.738281 11.1791 0.876527 11.4252 1.12261C11.6713 1.36869 11.8095 1.70244 11.8095 2.05045V11.2356C11.8095 11.5836 11.6713 11.9174 11.4252 12.1635C11.1791 12.4096 10.8454 12.5478 10.4974 12.5478H1.31217C0.96416 12.5478 0.630405 12.4096 0.384325 12.1635C0.138246 11.9174 0 11.5836 0 11.2356V2.05045C0 1.70244 0.138246 1.36869 0.384325 1.12261C0.630405 0.876527 0.96416 0.738281 1.31217 0.738281H10.4974ZM10.1693 10.9076V7.43034C10.1693 6.86309 9.94397 6.31907 9.54286 5.91796C9.14175 5.51685 8.59773 5.29151 8.03048 5.29151C7.4728 5.29151 6.82328 5.63267 6.50836 6.14442V5.41616H4.67788V10.9076H6.50836V7.6731C6.50836 7.16791 6.91513 6.75458 7.42032 6.75458C7.66392 6.75458 7.89755 6.85135 8.06981 7.02361C8.24206 7.19586 8.33884 7.42949 8.33884 7.6731V10.9076H10.1693ZM2.54561 4.38611C2.83794 4.38611 3.11829 4.26999 3.325 4.06328C3.5317 3.85657 3.64783 3.57622 3.64783 3.28389C3.64783 2.67373 3.15577 2.17511 2.54561 2.17511C2.25154 2.17511 1.96952 2.29192 1.76158 2.49986C1.55364 2.7078 1.43683 2.98982 1.43683 3.28389C1.43683 3.89405 1.93545 4.38611 2.54561 4.38611ZM3.45757 10.9076V5.41616H1.64021V10.9076H3.45757Z" fill="#13063D"/>
</svg>
