<svg width="14" height="14" viewBox="0 0 14 14" fill="none" xmlns="http://www.w3.org/2000/svg">
<path d="M10.1583 7.97143C10.2114 7.533 10.2513 7.09457 10.2513 6.64286C10.2513 6.19114 10.2114 5.75271 10.1583 5.31429H12.4036C12.5099 5.73943 12.5763 6.1845 12.5763 6.64286C12.5763 7.10121 12.5099 7.54629 12.4036 7.97143H10.1583ZM8.9825 11.6649C9.38107 10.9275 9.68664 10.1304 9.89921 9.3H11.8589C11.2211 10.3961 10.2048 11.2464 8.9825 11.6649ZM8.81643 7.97143H5.70757C5.64114 7.533 5.60128 7.09457 5.60128 6.64286C5.60128 6.19114 5.64114 5.74607 5.70757 5.31429H8.81643C8.87621 5.74607 8.92271 6.19114 8.92271 6.64286C8.92271 7.09457 8.87621 7.533 8.81643 7.97143ZM7.262 11.9306C6.71064 11.1334 6.26557 10.2499 5.99321 9.3H8.53078C8.25843 10.2499 7.81335 11.1334 7.262 11.9306ZM4.60486 3.98571H2.66514C3.29621 2.883 4.31921 2.03271 5.53485 1.62086C5.13628 2.35821 4.83736 3.15536 4.60486 3.98571ZM2.66514 9.3H4.60486C4.83736 10.1304 5.13628 10.9275 5.53485 11.6649C4.31921 11.2464 3.29621 10.3961 2.66514 9.3ZM2.12043 7.97143C2.01414 7.54629 1.94771 7.10121 1.94771 6.64286C1.94771 6.1845 2.01414 5.73943 2.12043 5.31429H4.36571C4.31257 5.75271 4.27271 6.19114 4.27271 6.64286C4.27271 7.09457 4.31257 7.533 4.36571 7.97143H2.12043ZM7.262 1.3485C7.81335 2.14564 8.25843 3.03579 8.53078 3.98571H5.99321C6.26557 3.03579 6.71064 2.14564 7.262 1.3485ZM11.8589 3.98571H9.89921C9.68664 3.15536 9.38107 2.35821 8.9825 1.62086C10.2048 2.03936 11.2211 2.883 11.8589 3.98571ZM7.262 0C3.5885 0 0.619141 2.98929 0.619141 6.64286C0.619141 8.40465 1.31901 10.0943 2.56479 11.3401C3.18163 11.9569 3.91394 12.4462 4.71989 12.7801C5.52583 13.1139 6.38965 13.2857 7.262 13.2857C9.02379 13.2857 10.7134 12.5858 11.9592 11.3401C13.205 10.0943 13.9049 8.40465 13.9049 6.64286C13.9049 5.7705 13.733 4.90669 13.3992 4.10075C13.0654 3.2948 12.5761 2.56249 11.9592 1.94565C11.3424 1.3288 10.6101 0.839492 9.80411 0.505657C8.99816 0.171823 8.13435 0 7.262 0Z" fill="#13063D"/>
</svg>
