<svg width="47" height="17" viewBox="0 0 47 17" fill="none" xmlns="http://www.w3.org/2000/svg">
<line y1="8.5" x2="47" y2="8.5" stroke="white"/>
<path fill-rule="evenodd" clip-rule="evenodd" d="M47 7.9836C46.8347 7.99448 46.668 8 46.5 8C42.3579 8 39 4.64214 39 0.5C39 0.331986 39.0055 0.165262 39.0164 0H38.0145C38.0049 0.165441 38 0.332153 38 0.5C38 5.19442 41.8056 9 46.5 9C46.6678 9 46.8346 8.99514 47 8.98554V7.9836Z" fill="white"/>
<path fill-rule="evenodd" clip-rule="evenodd" d="M39.0164 17C39.0055 16.8347 39 16.668 39 16.5C39 12.3579 42.3579 9 46.5 9C46.668 9 46.8347 9.00552 47 9.0164L47 8.01446C46.8346 8.00487 46.6678 8 46.5 8C41.8056 8 38 11.8056 38 16.5C38 16.6678 38.0049 16.8346 38.0145 17L39.0164 17Z" fill="white"/>
</svg>
